<svg width="76" height="75" viewBox="0 0 76 75" fill="none" xmlns="http://www.w3.org/2000/svg">
<path fill-rule="evenodd" clip-rule="evenodd" d="M49.4038 0.0749039C48.7624 0.207534 48.1376 0.461378 47.0718 1.02245C44.6404 2.30243 43.1937 2.67095 40.8591 2.6051C39.7754 2.57455 39.5997 2.55099 38.5184 2.292C37.8754 2.13799 37.0863 1.95686 36.7648 1.88956C36.0384 1.7374 34.9715 1.7275 34.3642 1.86732C33.3257 2.10632 31.819 2.94802 31.02 3.73549C30.4548 4.29253 30.2152 4.75344 29.867 5.95404C29.7091 6.49841 29.4913 7.16651 29.383 7.4387C28.7425 9.04761 27.1341 11.1727 25.698 12.3075C25.0128 12.8489 24.4237 13.1929 23.3572 13.6742C22.3676 14.1209 21.7767 14.4802 21.4763 14.8178C20.7085 15.6806 20.0672 17.5185 20.0705 18.8463C20.0731 19.8851 20.3654 20.6063 21.3437 21.9884C22.6576 23.8444 23.0627 25.1038 22.9673 27.0362C22.9195 28.0056 22.8003 28.5631 22.3393 29.9732C21.9923 31.0347 21.8877 31.7249 21.9719 32.3977C22.1941 34.1726 23.8638 36.5999 25.3122 37.254C25.9008 37.5198 26.3137 37.6291 27.4764 37.8268C28.7755 38.0477 29.3084 38.1975 30.094 38.5623C30.913 38.9427 31.5696 39.3895 32.3472 40.0956C33.0906 40.7706 33.6151 41.4705 34.0258 42.3358C34.7916 43.9493 35.132 44.3874 36.0314 44.9165C37.3048 45.6658 39.9863 46.4116 41.6683 46.4843C42.946 46.5396 43.5857 46.3431 44.6194 45.578C46.0592 44.5122 46.8155 44.1295 48.0572 43.8386C50.0312 43.376 51.5187 43.4507 53.5837 44.1161C55.6059 44.7677 56.5089 44.7363 58.2363 43.9545C59.5888 43.3424 60.8699 42.4107 61.4478 41.6189C61.8492 41.069 62.0583 40.538 62.409 39.1779C62.9518 37.0726 63.5461 36.0144 64.8582 34.8167C65.5298 34.2037 66.027 33.8974 67.4478 33.2215C68.7409 32.6064 69.0723 32.3973 69.6729 31.8175C70.8984 30.6344 71.7344 27.8296 71.3268 26.2686C71.166 25.6531 70.9285 25.2239 70.195 24.2232C69.1012 22.7311 68.7589 21.9724 68.5466 20.5697C68.3335 19.1615 68.4244 17.8482 68.8782 15.7823C69.1762 14.4255 69.2298 13.5871 69.0654 12.854C68.7984 11.6642 68.1249 10.5149 67.2624 9.77734C66.4778 9.10647 65.9121 8.86774 63.74 8.29109C63.0492 8.10772 62.1317 7.82372 61.701 7.65995C60.1656 7.07611 58.6448 5.9871 57.7982 4.86528C57.5928 4.5931 57.1859 3.98438 56.8938 3.51259C56.2028 2.39606 55.8773 1.96881 55.3846 1.53093C54.6687 0.89457 53.8198 0.506512 52.489 0.207072C51.5603 -0.00183681 50.0816 -0.0651823 49.4038 0.0749039ZM44.7655 6.12916C41.1181 6.27769 37.3798 7.49235 34.4556 9.47909C30.3606 12.2613 27.8065 16.1931 27.0367 20.8996C26.8628 21.9627 26.8629 24.2772 27.0369 25.3536C27.5435 28.4881 28.9467 31.4341 31.0756 33.8327C31.7143 34.5523 33.0826 35.7879 33.8787 36.364C35.8807 37.8126 38.2966 38.9236 40.7826 39.539C46.503 40.9548 52.5767 39.8559 57.3329 36.5444C58.1075 36.0051 59.4481 34.8363 60.1404 34.0966C63.0301 31.0093 64.5664 27.1959 64.5664 23.1101C64.5664 20.3344 63.9049 17.8359 62.5223 15.3899C59.9375 10.8169 55.2484 7.55338 49.734 6.48944C48.015 6.1578 46.5934 6.05473 44.7655 6.12916ZM44.3637 8.34164C36.5511 8.95431 30.2824 14.494 29.4199 21.5477C29.292 22.5936 29.3617 24.6008 29.5613 25.6176C30.148 28.6074 31.6137 31.2098 33.9312 33.3768C36.4477 35.73 39.5252 37.1891 43.1978 37.7704C43.7555 37.8587 44.3431 37.8857 45.7154 37.8865C47.2634 37.8874 47.6321 37.867 48.4415 37.7363C53.7522 36.8787 58.0534 33.9837 60.4344 29.6645C63.5605 23.9937 62.3122 17.1519 57.3309 12.6533C54.21 9.83488 49.936 8.25493 45.5748 8.30759C45.0694 8.31373 44.5244 8.32904 44.3637 8.34164ZM48.9121 20.2231L43.4507 25.1552L41.2219 23.1432L38.9931 21.1312L37.4041 22.5661L35.8152 24.0011L39.6512 27.4652L43.4871 30.9294L50.5377 24.5619L57.5882 18.1943L55.9809 16.7427L54.3734 15.291L48.9121 20.2231ZM66.5026 46.044C65.9411 46.4452 64.1165 47.5543 63.1597 48.0758C59.516 50.0621 55.8528 51.2277 51.2319 51.8711C50.3248 51.9974 50.1376 52.0423 50.1457 52.1314C50.1576 52.262 58.8884 70.4492 58.9403 70.4515C58.9604 70.4524 59.8298 67.8626 60.8723 64.6965C61.9148 61.5304 62.819 58.8043 62.8816 58.6385L62.9955 58.337L69.2348 60.9991C72.6663 62.4632 75.4857 63.6506 75.4999 63.6377C75.5142 63.6249 73.6321 59.6379 71.3175 54.7777C69.003 49.9175 67.0925 45.9039 67.0721 45.8585C67.0127 45.7264 66.8919 45.7658 66.5026 46.044ZM22.3336 55.0556C19.9938 59.7542 18.0933 63.6111 18.1104 63.6265C18.1274 63.642 20.924 62.4676 24.3248 61.0168C27.7257 59.5661 30.5372 58.3791 30.5728 58.3791C30.6083 58.3791 31.5197 61.0589 32.5981 64.3343C33.6764 67.6096 34.5843 70.334 34.6156 70.3884C34.6629 70.4706 34.6821 70.465 34.7285 70.3554C34.7592 70.2828 36.7158 66.2304 39.0763 61.3499C41.4369 56.4695 43.3577 52.4667 43.3446 52.455C43.3316 52.4432 42.7664 52.3596 42.0887 52.2691C35.9352 51.4478 31.6886 49.9278 27.2559 46.9599L26.5879 46.5126L22.3336 55.0556ZM0.543241 74.988C0.634135 75.0038 0.765654 75.0032 0.835505 74.9867C0.905356 74.9702 0.830975 74.9573 0.67023 74.958C0.509485 74.9587 0.452347 74.9723 0.543241 74.988ZM1.34609 74.99C1.5571 75.0033 1.90234 75.0033 2.11328 74.99C2.3243 74.9767 2.15164 74.9658 1.72969 74.9658C1.30773 74.9658 1.13515 74.9767 1.34609 74.99Z" fill="black"/>
</svg>
