<svg width="76" height="75" viewBox="0 0 76 75" fill="none" xmlns="http://www.w3.org/2000/svg">
<path d="M48.9204 0.0719976C48.6008 0.111155 48.2493 0.173806 48.1374 0.212963L47.9457 0.291277V4.72386V9.15644L47.674 9.42271C47.2745 9.81428 46.6913 9.76729 46.3717 9.30524C46.2359 9.11729 46.2279 8.76487 46.2039 4.96663C46.1879 2.116 46.156 0.839477 46.1 0.839477C46.0521 0.839477 45.7245 0.988274 45.365 1.1684C41.9534 2.90697 39.3887 6.54075 38.5418 10.848L38.318 11.9601H36.824H35.3219V13.0956V14.2312H50.0629H64.804V13.0956V11.9601L63.27 11.9444L61.7279 11.9209L61.704 11.686C61.696 11.5529 61.5921 11.0203 61.4882 10.5034C60.6094 6.29014 58.0367 2.77384 54.6011 1.08225L53.938 0.761163V4.8335C53.938 9.30524 53.938 9.32873 53.4666 9.56368C53.0671 9.76729 52.7635 9.72814 52.4519 9.42271L52.1802 9.15644V4.69253V0.228626L51.9645 0.181638C50.9897 -0.0141478 49.9111 -0.0533056 48.9204 0.0719976Z" fill="black"/>
<path d="M40.8908 16.009C40.8588 16.0325 40.8348 16.4006 40.8348 16.8157C40.8348 19.3609 41.9614 21.8904 43.8709 23.6525C44.9895 24.6862 46.2439 25.3754 47.746 25.7905C48.489 26.0019 48.6488 26.0176 49.9831 26.0176C51.5171 26.0176 52.0444 25.9393 53.0831 25.5555C56.7424 24.2085 59.2991 20.5434 59.1952 16.8L59.1713 15.9934L50.055 15.9699C45.0454 15.962 40.9147 15.9777 40.8908 16.009Z" fill="black"/>
<path d="M8.99575 18.9066C6.69471 19.0632 4.95295 19.8307 3.25913 21.4283C1.09391 23.4802 0.167107 25.9705 0.606542 28.6019C0.814275 29.8549 0.414788 28.9621 6.2393 41.1713C7.21404 43.2153 8.8839 46.7238 9.95452 48.9636C11.0251 51.2034 12.1117 53.4901 12.3834 54.0462C12.655 54.6022 12.8708 55.0799 12.8708 55.1191C12.8708 55.1504 12.5751 55.3305 12.2156 55.5107C10.6576 56.2781 9.86663 57.1709 9.49911 58.5727C8.92385 60.8047 10.378 63.3499 12.6231 64.0469C13.2862 64.2505 14.3728 64.2662 15.0919 64.0861C15.3636 64.0156 15.8669 63.8354 16.2025 63.6867C16.5381 63.53 16.8257 63.4282 16.8497 63.4439C16.8656 63.4674 17.7924 65.3939 18.911 67.7355C20.1494 70.3355 21.0922 72.1994 21.3239 72.5362C22.035 73.5386 23.4252 74.4627 24.7355 74.8073C27.1484 75.4259 30.2484 74.5175 32.166 72.6223C33.8278 70.9777 34.459 68.6831 33.7639 66.7801C33.652 66.459 33.5242 66.0361 33.4843 65.8403C33.4523 65.6445 33.2366 64.8614 33.0049 64.0861C32.6453 62.8565 32.6134 62.6764 32.7093 62.5589C32.877 62.3788 33.2046 61.721 33.3724 61.2198C33.5162 60.8125 33.5242 60.3035 33.5482 51.5636L33.5721 42.346H34.8425H36.1209L36.1368 57.8288L36.1608 73.3193L50.5184 73.3428L64.8839 73.3585L64.8999 57.8757L64.9238 42.3852L66.1862 42.3617L67.4406 42.3382V55.8709C67.4486 70.9542 67.4166 70.1476 67.9919 71.2831C68.695 72.6771 69.9254 73.4368 71.4754 73.4368C73.2891 73.4368 74.6553 72.4109 75.2865 70.5783L75.4703 70.0301L75.4942 55.6986C75.5102 45.8232 75.4942 41.0852 75.4303 40.4665C74.887 34.7887 70.996 30.1369 65.7228 28.8447C64.3326 28.5079 63.7174 28.4531 61.0248 28.4531L58.4761 28.4453L55.496 34.9453C53.8501 38.5165 52.4758 41.5002 52.4279 41.5629C52.372 41.6412 52.348 39.5267 52.348 34.9219L52.34 28.1712H50.2227H48.1055L48.0895 34.8279L48.0655 41.4767L45.0694 34.9453L42.0732 28.4061H39.916C38.7335 28.4061 37.3992 28.4453 36.9598 28.4844C32.5495 28.8995 28.9621 31.3351 26.9327 35.2821C26.5012 36.1279 25.9739 37.6002 25.8061 38.4068C25.7502 38.6809 25.6783 38.9002 25.6543 38.9002C25.6304 38.9002 25.5265 38.6105 25.4226 38.2502C25.3188 37.8978 25.0311 36.9032 24.7755 36.0417C24.5198 35.1803 23.8726 32.9797 23.3373 31.1471C21.1242 23.5898 20.5329 21.6319 20.4131 21.4518C20.1894 21.1151 19.8138 20.9819 17.7525 20.4964C10.7535 18.8361 11.3128 18.9536 10.1942 18.9066C9.75478 18.8909 9.21947 18.8909 8.99575 18.9066ZM14.0692 22.094C15.803 22.5091 17.4968 22.9163 17.8244 22.9946L18.4236 23.1434L19.1507 25.6338C20.1334 29.0013 22.4664 36.9345 22.8979 38.3912C24.5597 43.9985 26.9327 52.1588 26.9087 52.1823C26.8927 52.198 26.6211 51.6576 26.2935 50.9763C25.9739 50.3028 24.9273 48.11 23.9765 46.1051C23.0177 44.1003 21.4677 40.8424 20.5169 38.8611C15.6352 28.6176 14.7404 26.7537 14.3968 26.1037C13.9654 25.2735 13.0306 24.279 12.3115 23.8874C10.5857 22.9398 8.45245 22.9946 6.83054 24.0284C4.58542 25.4615 4.13001 28.5941 5.87976 30.5049C7.61353 32.3923 10.8334 32.0321 11.936 29.8236C12.1757 29.3381 12.1916 29.2597 12.1916 28.4453C12.1916 27.6778 12.1677 27.5368 11.9839 27.1531C11.8721 26.9103 11.6563 26.5814 11.5045 26.4091C11.2489 26.1272 11.2489 26.1193 11.4486 26.2446C11.7522 26.4404 12.2875 27.2392 12.4233 27.7091C12.8468 29.0874 12.5112 30.4736 11.5285 31.4447C10.9852 31.9851 10.5537 32.2435 9.70684 32.5254C8.54833 32.9248 6.95837 32.8074 5.83981 32.2435C5.31249 31.9851 4.56146 31.3664 4.20991 30.9278C2.88361 29.2362 2.59598 27.0748 3.44289 25.2266C3.91429 24.1928 4.89702 23.0573 5.87976 22.3994C7.16611 21.5536 8.22874 21.2639 9.95452 21.3187C10.8414 21.3422 11.137 21.397 14.0692 22.094ZM16.2025 35.517C17.1852 37.5689 19.1028 41.5942 20.469 44.4605C21.8352 47.3268 23.9605 51.7829 25.1909 54.3673C26.4213 56.9516 28.3229 60.9378 29.4175 63.2246C30.5041 65.5114 31.4389 67.5475 31.4948 67.7512C31.5507 67.9704 31.5667 68.3463 31.5428 68.6753C31.375 70.6331 29.1938 72.3952 26.7329 72.5518C25.8461 72.6066 25.2788 72.497 24.5438 72.1368C23.5051 71.6277 23.4731 71.5729 21.1561 66.7252C20.0296 64.3602 19.1028 62.3788 19.1028 62.3318C19.1028 62.2848 19.1747 62.23 19.2546 62.1987C19.4783 62.1282 20.2932 61.5878 20.6368 61.2902C21.0363 60.9222 21.5396 60.1938 21.7474 59.6613C21.987 59.0505 22.051 57.7661 21.8672 57.0691C21.4677 55.4872 20.3092 54.2341 18.7912 53.7251C17.8643 53.4118 16.5061 53.498 15.4754 53.9287L15.1239 54.0775L13.8855 51.4853C13.2063 50.0522 11.8481 47.2093 10.8733 45.1653C9.89859 43.1213 8.39652 39.9888 7.54961 38.2032C6.69471 36.4177 5.99961 34.9375 5.99961 34.9062C5.99961 34.867 6.16739 34.8984 6.38311 34.961C6.99832 35.149 8.86792 35.1881 9.68287 35.0315C11.4646 34.6712 13.0865 33.6375 13.9973 32.267C14.1811 32.0007 14.3489 31.7736 14.3808 31.7736C14.4048 31.7736 15.2277 33.4574 16.2025 35.517Z" fill="black"/>
</svg>
