<svg width="46" height="45" viewBox="0 0 46 45" fill="none" xmlns="http://www.w3.org/2000/svg">
<path d="M10.124 0.0471832C8.35742 0.284726 6.48535 1.6308 5.70312 3.24082C4.98242 4.70127 5.03516 3.97984 5 13.7719L4.97363 22.5082H3.6377C2.4248 22.5082 2.25781 22.5258 1.8623 22.7193C1.625 22.8249 1.27344 23.0801 1.09766 23.2824C0.790039 23.6255 0.5 24.3294 0.5 24.7517C0.5 25.174 0.790039 25.8778 1.09766 26.2209C1.44922 26.6168 2.16113 26.9951 2.54785 26.9951C2.77637 26.9951 2.78516 27.0127 2.78516 27.4262C2.78516 27.6726 2.84668 28.3324 2.91699 28.9043C3.32129 32.0011 4.34961 34.9484 5.75586 37.0687C6.58203 38.318 7.47852 39.189 8.63867 39.8928C8.79688 39.9896 8.79688 40.0072 8.65625 40.1656C8.57715 40.2535 8.40137 40.5615 8.26953 40.8518C8.07617 41.2741 8.02344 41.5028 8.02344 42.0395C8.03223 43.2448 8.66504 44.2214 9.79883 44.7493C10.502 45.0836 11.4863 45.0836 12.207 44.7493C12.8135 44.4677 13.4023 43.9047 13.6836 43.3152C13.9912 42.6994 14.0352 41.6524 13.7891 41.0102L13.6133 40.5439H23H32.3955L32.2109 40.9486C32.0879 41.2389 32.0352 41.5468 32.0352 41.9867C32.0352 43.2096 32.624 44.1686 33.7051 44.6965C34.2148 44.9516 34.373 44.9868 34.9971 44.9868C35.6211 44.9868 35.7705 44.9516 36.2891 44.6965C37.8975 43.9047 38.46 41.9427 37.502 40.4295C37.3613 40.2008 37.2383 39.9984 37.2383 39.9808C37.2383 39.9632 37.4844 39.8048 37.7832 39.6201C40.5254 37.9221 42.8193 32.8897 43.1885 27.7693C43.2412 27.0127 43.2412 26.9951 43.4697 26.9951C43.8389 26.9951 44.5508 26.608 44.9023 26.2209C45.21 25.8778 45.5 25.174 45.5 24.7517C45.5 24.3294 45.21 23.6255 44.9023 23.2824C44.7266 23.0801 44.3838 22.8249 44.1377 22.7193L43.6982 22.5082H25.083H6.46777L6.49414 13.8159C6.52051 5.14996 6.52051 5.13236 6.71387 4.63088C7.31152 3.05606 8.49805 1.97392 10.0098 1.61321C10.3262 1.54282 10.9941 1.48124 11.5566 1.48124H12.541V3.01207V4.5429L12.2158 4.65728C10.6865 5.14996 9.66699 6.39046 9.57031 7.86851C9.53516 8.46676 9.54395 8.54594 9.72852 8.7395L9.93066 8.95945H13.2441H16.5576L16.7334 8.75709C16.9971 8.45797 17.0322 8.29081 16.9355 7.67495C16.7422 6.46084 16.0391 5.49308 14.9756 4.9652C14.6328 4.79804 14.2725 4.63968 14.1934 4.61329C14.0527 4.5693 14.0352 4.40214 14.0352 2.66895C14.0352 0.654238 13.9736 0.275928 13.6133 0.0823748C13.4375 -0.00560412 10.748 -0.0319978 10.124 0.0471832ZM14.334 6.30248C14.624 6.46084 14.8877 6.70719 15.0723 6.98872L15.3711 7.41981L14.3076 7.44621C13.7188 7.45501 12.7695 7.45501 12.1895 7.44621L11.126 7.41981L11.3896 7.00631C12.0049 6.03855 13.2969 5.72182 14.334 6.30248ZM23.791 24.7517V25.4995H13.165H2.53027L2.29297 25.2883C1.9502 24.998 1.9502 24.5053 2.29297 24.215L2.53027 24.0038H13.165H23.791V24.7517ZM35.7441 28.1388V32.2739H30.5146H25.2852V28.1388V24.0038H30.5146H35.7441V28.1388ZM43.707 24.215C43.8916 24.3733 43.9531 24.4965 43.9531 24.7517C43.9531 25.0068 43.8916 25.13 43.707 25.2883L43.4697 25.4995H40.3496H37.2383V24.7517V24.0038H40.3496H43.4697L43.707 24.215ZM23.791 30.9542C23.8174 33.1097 23.8613 34.9132 23.8965 34.966C23.9316 35.0188 24.0811 35.1156 24.2305 35.1772C24.8018 35.4147 25.2852 34.9308 25.2852 34.1214V33.7695H26.0322H26.7793V34.2798C26.7793 34.6757 26.8232 34.834 26.9551 34.9836C27.5264 35.5907 28.2734 35.1068 28.2734 34.1214V33.7695H29.0205H29.7676V34.2798C29.7676 34.6757 29.8115 34.834 29.9434 34.9836C30.1807 35.2387 30.4971 35.3091 30.7871 35.1596C31.1123 35.01 31.2617 34.7021 31.2617 34.183V33.7695H32.0088H32.7559V34.2622C32.7559 34.6933 32.791 34.7813 33.0195 35.0188C33.248 35.2387 33.3359 35.2739 33.5732 35.2299C34.0215 35.142 34.25 34.8164 34.25 34.2446V33.7695H34.9971H35.7441V34.2622C35.7441 34.6845 35.7793 34.7813 35.999 35.01C36.1572 35.1596 36.3506 35.2651 36.4912 35.2651C36.6318 35.2651 36.8252 35.1596 36.9834 35.01L37.2383 34.7549V30.875V26.9951H39.4795H41.7207V27.3382C41.7207 28.482 41.2637 30.9102 40.7451 32.485C39.5498 36.1361 37.458 38.6611 35.3838 38.9602C34.6367 39.0746 11.3633 39.0746 10.6162 38.9602C7.77734 38.5555 5.13184 34.1742 4.41113 28.7283C4.34082 28.1564 4.2793 27.5318 4.2793 27.3382V26.9951L14.0176 27.0127L23.7471 27.0391L23.791 30.9542ZM11.6445 40.667C12.4092 41.0717 12.7168 42.0747 12.2861 42.7785C11.6797 43.7551 10.168 43.7111 9.69336 42.6994C9.32422 41.9339 9.61426 41.0717 10.3877 40.6494C10.6338 40.5087 11.3633 40.5175 11.6445 40.667ZM35.6387 40.667C36.1484 40.931 36.4648 41.4325 36.4648 41.9955C36.4648 42.8489 35.8408 43.4824 35.0059 43.4824C34.1621 43.4824 33.5293 42.8665 33.5293 42.0483C33.5293 41.4413 33.8281 40.9574 34.3818 40.6494C34.6279 40.5087 35.3574 40.5175 35.6387 40.667Z" fill="#385529"/>
<path d="M13.1123 10.4947C13.0156 10.5123 12.8486 10.6091 12.7432 10.7147C12.5674 10.873 12.541 10.9874 12.541 11.5329C12.541 12.3071 12.5762 12.4215 12.9014 12.5798C13.2441 12.7646 13.4639 12.747 13.7275 12.5094C13.9121 12.3511 13.9736 12.2103 14.0088 11.788C14.0879 10.8994 13.7188 10.3716 13.1123 10.4947Z" fill="#385529"/>
<path d="M16.1006 10.4947C16.0039 10.5123 15.8369 10.6091 15.7314 10.7146C15.5557 10.873 15.5293 10.9786 15.5293 11.568C15.5293 12.1223 15.5645 12.2719 15.7051 12.4302C16.083 12.8349 16.6631 12.7557 16.9092 12.2719C17.0586 11.9815 17.0498 11.2777 16.9004 10.917C16.7686 10.6091 16.4258 10.4243 16.1006 10.4947Z" fill="#385529"/>
<path d="M9.73741 10.7234C9.45616 11.0226 9.39463 11.8408 9.61436 12.2719C9.79893 12.6326 10.1417 12.7821 10.5021 12.659C10.8712 12.5358 11.0646 12.0695 11.0118 11.4536C10.9591 10.8026 10.7306 10.5123 10.256 10.5123C10.0274 10.5123 9.87803 10.5739 9.73741 10.7234Z" fill="#385529"/>
<path d="M9.88663 14.3482C9.47354 14.5682 9.3417 15.6239 9.65811 16.143C9.81631 16.3893 10.1942 16.5037 10.5019 16.3981C10.8007 16.2925 10.9501 16.0638 11.0116 15.5887C11.0907 15.0344 10.9149 14.4978 10.6073 14.3394C10.2909 14.1811 10.1942 14.1811 9.88663 14.3482Z" fill="#385529"/>
<path d="M12.9365 14.313C12.6113 14.489 12.541 14.6649 12.541 15.3512C12.541 15.9406 12.5674 16.0462 12.7432 16.2046C13.0244 16.4597 13.2002 16.5037 13.5166 16.3893C13.8418 16.2749 14.0352 15.8878 14.0352 15.3512C14.0352 14.5066 13.499 13.9963 12.9365 14.313Z" fill="#385529"/>
<path d="M15.9248 14.313C15.5996 14.5065 15.5381 14.6825 15.5293 15.3599C15.5293 15.9406 15.5557 16.0462 15.7314 16.2045C16.0215 16.4685 16.2061 16.5037 16.5312 16.3717C16.751 16.2837 16.8564 16.1605 16.9355 15.923C17.085 15.4743 17.0059 14.6825 16.7949 14.4714C16.584 14.2514 16.1533 14.1722 15.9248 14.313Z" fill="#385529"/>
<path d="M9.75488 18.2017C9.52637 18.404 9.50879 18.4568 9.50879 19.0903C9.50879 19.7237 9.52637 19.7765 9.75488 19.9789C9.89551 20.0932 10.1152 20.19 10.2559 20.19C10.3965 20.19 10.6162 20.0932 10.7568 19.9789C10.9854 19.7765 11.0029 19.7237 11.0029 19.0903C11.0029 18.4568 10.9854 18.404 10.7568 18.2017C10.6162 18.0873 10.3965 17.9905 10.2559 17.9905C10.1152 17.9905 9.89551 18.0873 9.75488 18.2017Z" fill="#385529"/>
<path d="M12.7607 18.2105C12.5674 18.3952 12.541 18.5008 12.541 19.0903C12.541 19.6797 12.5674 19.7853 12.7607 19.97C13.0508 20.2692 13.4902 20.2692 13.7803 19.9612C13.9648 19.7677 13.9912 19.6533 13.9912 19.0903C13.9912 18.5272 13.9648 18.4128 13.7803 18.2193C13.4902 17.9113 13.0508 17.9113 12.7607 18.2105Z" fill="#385529"/>
<path d="M15.749 18.2105C15.5557 18.3952 15.5293 18.5008 15.5293 19.0903C15.5293 19.6797 15.5557 19.7853 15.749 19.97C16.0391 20.2692 16.4785 20.2692 16.7686 19.9612C16.9531 19.7677 16.9795 19.6533 16.9795 19.0903C16.9795 18.5272 16.9531 18.4128 16.7686 18.2193C16.4785 17.9113 16.0391 17.9113 15.749 18.2105Z" fill="#385529"/>
</svg>
