<svg width="46" height="45" viewBox="0 0 46 45" fill="none" xmlns="http://www.w3.org/2000/svg">
<path d="M45.5 43.5483H44.0483V45H45.5V43.5483Z" fill="#385529"/>
<path d="M35.3387 7.25806V1.45161H23.7258V0H22.2742V1.45161H10.6613V17.1341L6.30645 14.6199V14.5161H6.12718L5.9704 14.4254L5.91742 14.5161H0.5V24.6774C0.5 26.2785 1.8021 27.5806 3.40323 27.5806H10.6613V30.4839H17.0339L14.421 43.5484H0.5V45H22.2742H23.7258H42.5968V43.5484H31.579L28.9661 30.4839H35.3387V18.871H41.1452V17.4194H39.8968L41.2105 12.166L38.5199 8.80258C41.2439 9.28016 43.3226 11.6572 43.3226 14.5161H44.7742C44.7742 12.1406 43.6216 10.0343 41.8521 8.70968H45.5V7.25806H35.3387ZM4.85484 24.6774C4.85484 25.478 4.20379 26.129 3.40323 26.129C2.60266 26.129 1.95161 25.478 1.95161 24.6774V15.9677H4.85484V24.6774ZM10.2193 19.0662L11.6709 21.5797L6.98 24.2884L9.8825 19.2607L10.2193 19.0662ZM6.30645 16.7465L6.50169 16.4083L9.01516 17.8599L6.30645 22.5515V16.7465ZM6.69403 26.129L11.7231 23.2258H12.1129V26.129H6.69403ZM22.2742 43.5484H15.9016L18.5145 30.4839H22.2742V43.5484ZM30.0984 43.5484H23.7258V30.4839H27.4855L30.0984 43.5484ZM33.8218 12.166L35.1355 17.4194H33.8871V18.1452V18.871V29.0323H12.1129V27.5806H13.5645V22.1625L13.6545 22.1102L13.5645 21.9549V21.7742H13.46L12.1129 19.4407V2.90323H33.8871V7.25806H29.5323V8.70968H33.1802C31.4106 10.0343 30.2581 12.1406 30.2581 14.5161H31.7097C31.7097 11.6572 33.7884 9.28016 36.5123 8.80258L33.8218 12.166ZM39.6282 12.5122L38.4016 17.4194H36.6306L35.404 12.5115L36.7903 10.779V13.7903H38.2419V10.779L39.6282 12.5122Z" fill="#385529"/>
<path d="M16.4677 5.80646H15.0161V7.25807H16.4677V5.80646Z" fill="#385529"/>
<path d="M30.9838 24.6774H29.5322V26.129H30.9838V24.6774Z" fill="#385529"/>
<path d="M29.5323 15.9677C29.5323 12.3655 26.6022 9.43546 23 9.43546C21.8257 9.43546 20.7254 9.75118 19.7724 10.2955L17.7808 7.55707L16.6071 8.41062L18.6016 11.1527C17.2937 12.3481 16.4678 14.061 16.4678 15.9677C16.4678 19.5699 19.3979 22.5 23 22.5C24.1744 22.5 25.2747 22.1842 26.2277 21.6399L28.2193 24.3784L29.3929 23.5248L27.3984 20.7827C28.7063 19.5873 29.5323 17.8744 29.5323 15.9677ZM23 21.0484C20.1991 21.0484 17.9194 18.7686 17.9194 15.9677C17.9194 14.543 18.5109 13.2554 19.4588 12.3321L25.3691 20.459C24.6607 20.8335 23.8558 21.0484 23 21.0484ZM20.631 11.4764C21.3394 11.1019 22.1443 10.8871 23 10.8871C25.8009 10.8871 28.0807 13.1668 28.0807 15.9677C28.0807 17.3925 27.4891 18.6801 26.5412 19.6033L20.631 11.4764Z" fill="#385529"/>
</svg>
