<svg width="46" height="45" viewBox="0 0 46 45" fill="none" xmlns="http://www.w3.org/2000/svg">
<path d="M3.62783 0.08041C3.02079 0.264977 2.48412 0.721992 2.16741 1.31963C2.01784 1.59209 2.00025 1.8909 1.97386 4.26388L1.94746 6.90931L1.68353 7.02357C1.32282 7.18177 0.882937 7.62999 0.671791 8.05186C0.434253 8.53524 0.44305 9.50201 0.698185 9.98539C0.900533 10.3721 1.48118 10.9346 1.76271 11.0225C1.92987 11.084 1.93866 11.1719 1.97386 13.5624C2.00905 15.786 2.03544 16.0936 2.1938 16.5243C2.67767 17.825 3.3463 18.7215 4.31405 19.3367L4.92989 19.7322L4.96509 27.0269L5.00028 34.3216L5.22902 35.1741C5.6865 36.844 6.4431 38.1535 7.622 39.34C9.26718 40.9835 11.2819 41.8624 13.666 41.9854L14.6954 42.0382L14.7306 42.8467C14.757 43.5674 14.7922 43.7168 15.0297 44.086C15.2144 44.3936 15.4168 44.5781 15.7599 44.7539L16.2262 45H28.1647C36.2146 45 40.2 44.9648 40.4287 44.9033C40.8598 44.7891 41.3525 44.3496 41.5549 43.9014C41.7132 43.5674 41.722 43.1016 41.722 35.6575C41.722 31.3246 41.7308 27.7739 41.7484 27.7739C41.7572 27.7739 41.9244 27.853 42.1179 27.9497C42.7953 28.2925 43.3496 28.1255 43.9742 27.3609C45.0476 26.0777 45.4347 25.4976 45.4786 25.1373C45.5754 24.4078 45.4523 24.2672 42.725 22.1491L40.2264 20.2068V17.0252C40.2264 13.8964 40.2176 13.8349 40.0241 13.5009C39.9009 13.2812 39.6809 13.0791 39.4434 12.9472C39.0739 12.7539 38.9683 12.7451 37.2704 12.7451C35.3788 12.7451 35.1501 12.7802 34.7454 13.1669C34.3495 13.5449 34.2967 13.7031 34.2439 14.6435L34.2 15.5311L31.5606 13.4746C30.109 12.3496 28.7893 11.3828 28.6222 11.3301C28.2263 11.1982 27.7776 11.2861 27.3993 11.5762C25.7981 12.7714 11.3698 24.0211 11.2379 24.1705C11.0971 24.3199 11.0619 24.4869 11.0619 24.9527V25.5416L11.9593 26.6841C13.103 28.1519 13.5253 28.3804 14.3611 27.9497L14.713 27.7739V32.6605V37.5559L13.9476 37.5031C12.5751 37.4065 11.6426 37.011 10.8068 36.1672C10.2701 35.6399 9.97099 35.1477 9.68067 34.3655L9.47832 33.7943L9.45193 26.7984L9.42554 19.8025L9.99739 19.4422C10.7188 18.9676 11.5282 18.0975 11.8801 17.3856C12.3816 16.3836 12.4432 16.0057 12.4871 13.4394C12.5311 11.1367 12.5399 11.0928 12.7247 11.0049C13.0942 10.8379 13.4901 10.4336 13.7188 9.98539C13.9916 9.45807 14.0267 8.67586 13.8156 8.16611C13.6309 7.74425 13.103 7.17298 12.7863 7.03236L12.5311 6.92689L12.4959 4.32541L12.4696 1.71513L12.232 1.2669C11.4842 -0.156887 9.59269 -0.420551 8.55456 0.757149C8.0003 1.39873 7.98271 1.46025 7.95631 4.23751L7.92992 6.76869H7.18211H6.4431V4.23751V1.70634L6.21436 1.24932C5.74808 0.308918 4.59558 -0.209621 3.62783 0.08041ZM4.534 1.60088C4.93869 1.81181 4.93869 1.85575 4.94749 4.36935V6.76869H4.19968H3.45188V4.38692V2.00516L3.70701 1.75028C3.97974 1.47783 4.22608 1.43389 4.534 1.60088ZM10.7804 1.76786C10.9124 1.93485 10.9299 2.19851 10.9299 4.36935V6.77748L10.2085 6.75111L9.47832 6.72475V4.32541V1.91727L9.73346 1.69755C9.9446 1.52177 10.0502 1.48662 10.3053 1.53056C10.4813 1.55693 10.6924 1.6624 10.7804 1.76786ZM12.1968 8.45614C12.5311 8.76375 12.5399 9.21198 12.2056 9.53717L11.9945 9.75689H7.2349H2.46653L2.21139 9.50201C1.93866 9.22956 1.89468 8.98347 2.06183 8.67586C2.28178 8.26279 2.1762 8.27158 7.20851 8.26279H11.9769L12.1968 8.45614ZM10.9299 13.4746C10.9299 15.452 10.9124 15.7596 10.7628 16.1991C10.4285 17.1746 9.72466 17.9393 8.73931 18.4051C8.19385 18.6599 8.09708 18.6775 7.19091 18.6775C6.27595 18.6775 6.18797 18.6599 5.62492 18.3875C4.57798 17.8777 3.78619 16.8758 3.54865 15.7509C3.49586 15.4872 3.45188 14.4237 3.45188 13.2724V11.251H7.19091H10.9299V13.4746ZM36.1355 18.9324L43.9302 24.9791L43.6839 25.3043C43.1209 26.0513 42.7514 26.4996 42.6986 26.4996C42.6722 26.4996 39.5226 24.0739 35.6956 21.1032C31.8774 18.1326 28.6486 15.6542 28.5254 15.5927C28.4022 15.5311 28.2087 15.5048 28.0943 15.5311C27.9448 15.5663 16.9916 23.986 13.8596 26.4732C13.7892 26.5259 13.5781 26.3238 13.1822 25.814C12.8654 25.401 12.6015 25.0318 12.6103 24.9967C12.6103 24.8912 28.1823 12.8242 28.2703 12.8505C28.3055 12.8681 31.851 15.6014 36.1355 18.9324ZM38.7308 16.6209C38.7308 17.9305 38.6956 18.9851 38.6604 18.9676C38.6164 18.95 37.9478 18.449 37.1648 17.8426L35.7484 16.744L35.7396 15.4872V14.2392H37.2352H38.7308V16.6209ZM34.2703 21.8854L40.2176 26.4996L40.2264 34.9017C40.2264 41.3175 40.2 43.3213 40.1208 43.4004C40.0416 43.4795 37.2792 43.5059 28.2527 43.5059C17.669 43.5059 16.4725 43.4883 16.3494 43.3653C16.2262 43.2422 16.2086 42.3546 16.2086 34.8929V26.5611L22.2174 21.8942C25.5166 19.3279 28.2439 17.2362 28.2703 17.2537C28.3055 17.2625 31.0064 19.3455 34.2703 21.8854ZM7.95631 27.0884C7.99151 34.7347 7.96511 34.3304 8.59855 35.6399C9.1792 36.8352 10.1118 37.7668 11.3258 38.3645C12.1264 38.7599 12.8039 38.9269 13.8596 38.9972L14.713 39.05V39.797V40.5441L13.7716 40.4913C10.2789 40.2892 7.622 38.1623 6.68064 34.8138C6.49589 34.1634 6.49589 33.9788 6.4607 27.1763L6.43431 20.2156H7.18211H7.92992L7.95631 27.0884Z" fill="#385529"/>
<path d="M29.6164 24.1178C29.3173 24.2496 23.3612 30.7181 23.1325 31.1752C22.8597 31.6937 23.0093 32.3001 23.502 32.722C23.7747 32.9505 23.8275 32.9593 24.7952 32.9593C25.5342 32.9593 25.7982 32.9857 25.7982 33.0648C25.807 33.1263 25.6398 34.5852 25.4375 36.299C25.068 39.4015 25.068 39.4191 25.2263 39.7618C25.4023 40.131 25.7718 40.4034 26.2117 40.4825C26.8011 40.5968 27.0738 40.3507 30.241 36.8615C31.8862 35.0422 33.2762 33.4778 33.3378 33.3724C33.505 33.0648 33.4786 32.4232 33.2762 32.098C32.9947 31.641 32.5108 31.4652 31.4903 31.4652H30.6193L30.6721 31.1312C30.8305 30.1557 31.3407 25.6382 31.3407 25.2515C31.3407 24.8912 31.2968 24.7418 31.1032 24.5133C30.6985 24.0387 30.153 23.8892 29.6164 24.1178ZM29.4052 29.1537C29.2117 30.7621 29.0533 32.1683 29.0533 32.2913C29.0533 32.4056 29.1325 32.5902 29.2205 32.7044C29.3788 32.9066 29.4668 32.9153 30.5489 32.9593L31.7102 33.0032L29.2117 35.7453C27.848 37.2482 26.7131 38.4787 26.7043 38.4611C26.6955 38.4523 26.8539 37.0373 27.065 35.3323C27.4609 32.0365 27.4609 31.8343 27.0826 31.6146C26.9859 31.5619 26.4316 31.4916 25.8598 31.4652L24.8304 31.4213L27.2674 28.7407C28.6134 27.2641 29.722 26.0952 29.7396 26.148C29.7484 26.2007 29.5988 27.5542 29.4052 29.1537Z" fill="#385529"/>
</svg>
