<svg width="54" height="53" viewBox="0 0 54 53" fill="none" xmlns="http://www.w3.org/2000/svg">
<g filter="url(#filter0_d_65_102)">
<path d="M5.05441 0.140621C4.45678 0.439442 4.50072 -1.43258 4.50072 22.4994C4.50072 42.0195 4.5183 44.164 4.64134 44.4276C4.93137 45.0516 3.01543 44.9989 26.9998 44.9989C50.9842 44.9989 49.0683 45.0516 49.3583 44.4276C49.4813 44.164 49.4989 42.0195 49.4989 22.4994C49.4989 -1.48532 49.5516 0.430653 48.9276 0.140621C48.664 0.0175781 46.5195 0 26.9822 0C7.50646 0 5.30928 0.0175781 5.05441 0.140621ZM13.1137 16.0396V30.0579H9.81789H6.52212V16.0396V2.02143H9.81789H13.1137V16.0396ZM21.6387 8.21757V14.4137H18.3869H15.1351V8.21757V2.02143H18.3869H21.6387V8.21757ZM30.2516 16.0396V30.0579H26.9998H23.748V16.0396V2.02143H26.9998H30.2516V16.0396ZM38.8646 8.21757V14.4137H35.6127H32.3609V8.21757V2.02143H35.6127H38.8646V8.21757ZM47.4775 16.0396V30.0579H44.1817H40.886V16.0396V2.02143H44.1817H47.4775V16.0396ZM21.6387 29.7502V42.9775H18.3869H15.1351V29.7502V16.523H18.3869H21.6387V29.7502ZM38.8646 29.7502V42.9775H35.6127H32.3609V29.7502V16.523H35.6127H38.8646V29.7502ZM13.1137 37.5284V42.9775H9.81789H6.52212V37.5284V32.0793H9.81789H13.1137V37.5284ZM30.2516 37.5284V42.9775H26.9998H23.748V37.5284V32.0793H26.9998H30.2516V37.5284ZM47.4775 37.5284V42.9775H44.1817H40.886V37.5284V32.0793H44.1817H47.4775V37.5284Z" fill="#385529"/>
<path d="M9.31691 26.2434C8.82474 26.5071 8.67533 27.1575 8.98293 27.6585C9.33448 28.2385 10.3012 28.2385 10.6616 27.6497C11.2065 26.7532 10.2397 25.7425 9.31691 26.2434Z" fill="#385529"/>
<path d="M18.2111 10.5203C17.6662 10.6873 17.4202 11.0125 17.4202 11.5662C17.4202 12.0408 17.886 12.4802 18.3869 12.4802C19.6261 12.4802 19.7755 10.7752 18.5627 10.5203C18.4397 10.4939 18.2815 10.4939 18.2111 10.5203Z" fill="#385529"/>
<path d="M26.6043 26.1819C25.9539 26.4632 25.8133 27.3684 26.3494 27.8694C26.5252 28.0364 26.6658 28.0803 26.9998 28.0803C27.3337 28.0803 27.4744 28.0364 27.6501 27.8694C28.2829 27.2717 27.9577 26.2259 27.1228 26.138C26.9383 26.1204 26.701 26.138 26.6043 26.1819Z" fill="#385529"/>
<path d="M35.314 10.5467C34.9712 10.6521 34.7603 10.8631 34.646 11.2146C34.4263 11.8562 34.9097 12.4802 35.6128 12.4802C36.1138 12.4802 36.5796 12.0408 36.5796 11.5662C36.5796 10.8367 35.9819 10.3533 35.314 10.5467Z" fill="#385529"/>
<path d="M44.1202 26.261C43.5753 26.595 43.4786 27.3596 43.9268 27.8079C44.5596 28.4319 45.6318 28.0012 45.6318 27.1223C45.6318 26.3401 44.7706 25.848 44.1202 26.261Z" fill="#385529"/>
<path d="M18.2111 18.4214C17.6575 18.6148 17.4202 18.9224 17.4202 19.4761C17.4202 19.9507 17.886 20.3901 18.3869 20.3901C19.6261 20.3901 19.7755 18.6675 18.5627 18.4214C18.4397 18.3951 18.2815 18.3951 18.2111 18.4214Z" fill="#385529"/>
<path d="M35.314 18.4566C34.9712 18.5621 34.7603 18.773 34.646 19.1245C34.4263 19.7661 34.9097 20.3901 35.6128 20.3901C36.1138 20.3901 36.5796 19.9507 36.5796 19.4761C36.5796 18.7466 35.9819 18.2632 35.314 18.4566Z" fill="#385529"/>
<path d="M9.31691 34.1535C8.82474 34.4171 8.67533 35.0675 8.98293 35.5685C9.33448 36.1485 10.3012 36.1485 10.6616 35.5597C11.2065 34.6632 10.2397 33.6525 9.31691 34.1535Z" fill="#385529"/>
<path d="M26.6043 34.092C25.9539 34.3732 25.8133 35.2785 26.3494 35.7794C26.5252 35.9464 26.6658 35.9904 26.9998 35.9904C27.3337 35.9904 27.4744 35.9464 27.6501 35.7794C28.2829 35.1818 27.9577 34.1359 27.1228 34.048C26.9383 34.0304 26.701 34.048 26.6043 34.092Z" fill="#385529"/>
<path d="M44.1203 34.171C43.5842 34.4962 43.4875 35.2784 43.9357 35.7178C44.5597 36.3418 45.6319 35.9024 45.6319 35.0323C45.6319 34.2501 44.7706 33.7579 44.1203 34.171Z" fill="#385529"/>
</g>
<defs>
<filter id="filter0_d_65_102" x="0.5" y="0" width="53" height="53" filterUnits="userSpaceOnUse" color-interpolation-filters="sRGB">
<feFlood flood-opacity="0" result="BackgroundImageFix"/>
<feColorMatrix in="SourceAlpha" type="matrix" values="0 0 0 0 0 0 0 0 0 0 0 0 0 0 0 0 0 0 127 0" result="hardAlpha"/>
<feOffset dy="4"/>
<feGaussianBlur stdDeviation="2"/>
<feComposite in2="hardAlpha" operator="out"/>
<feColorMatrix type="matrix" values="0 0 0 0 0 0 0 0 0 0 0 0 0 0 0 0 0 0 0.25 0"/>
<feBlend mode="normal" in2="BackgroundImageFix" result="effect1_dropShadow_65_102"/>
<feBlend mode="normal" in="SourceGraphic" in2="effect1_dropShadow_65_102" result="shape"/>
</filter>
</defs>
</svg>
