<svg width="46" height="45" viewBox="0 0 46 45" fill="none" xmlns="http://www.w3.org/2000/svg">
<path d="M2.05913 0.113785C1.58388 0.258961 0.76915 1.03927 0.623664 1.50202C0.458779 2.02827 0.458779 9.57736 0.623664 10.1036C0.846743 10.8113 1.93304 11.6098 2.67018 11.6098C2.81566 11.6098 2.83506 12.1179 2.85446 16.8905L2.88356 22.1803L3.15513 22.7248C3.5043 23.4325 4.16384 24.0495 4.91067 24.3761C5.41502 24.5939 5.62841 24.6302 6.32674 24.6302C7.02508 24.6302 7.23846 24.5939 7.74281 24.3761C8.48964 24.0495 9.14918 23.4325 9.49835 22.7248C9.75053 22.2166 9.76993 22.0896 9.79902 20.7558C9.83782 19.3313 9.83782 19.3313 9.58564 19.0954C9.29467 18.8232 8.86791 18.796 8.54784 19.0409C8.32476 19.2043 8.31506 19.2768 8.26656 20.6106C8.21807 21.8718 8.19867 22.0352 7.98529 22.3437C7.8592 22.5342 7.57793 22.7973 7.36455 22.9334C7.03478 23.1421 6.86019 23.1784 6.32674 23.1784C5.79329 23.1784 5.61871 23.1421 5.28894 22.9334C5.07556 22.7973 4.79428 22.5342 4.66819 22.3437L4.43541 21.9989L4.40632 16.7998L4.37722 11.6098H10.5943H16.8115L16.7824 14.9851C16.7533 18.3695 16.7533 18.3695 16.5205 18.7143C16.3944 18.9048 16.1131 19.168 15.8998 19.3041C15.57 19.5128 15.3954 19.5491 14.862 19.5491C14.3285 19.5491 14.1539 19.5128 13.8242 19.3041C13.6108 19.168 13.3295 18.9048 13.2034 18.7143C12.9803 18.3877 12.9706 18.2697 12.9221 16.5095C12.8639 14.3953 12.8154 14.2139 12.088 13.615C11.1278 12.8256 9.91541 12.871 8.994 13.7421C8.34416 14.3409 8.26656 14.6313 8.26656 16.3189C8.26656 17.6618 8.27626 17.7071 8.50904 17.9158C8.65453 18.061 8.85821 18.1427 9.04249 18.1427C9.22678 18.1427 9.43046 18.061 9.57594 17.9158C9.80872 17.7071 9.81842 17.6618 9.81842 16.328C9.81842 14.9942 9.82812 14.9488 10.0609 14.7401C10.3422 14.4679 10.7786 14.4498 11.089 14.6857C11.3121 14.8581 11.3218 14.9035 11.3703 16.7091C11.4188 18.4875 11.4285 18.5691 11.6903 19.0954C12.0395 19.8031 12.6991 20.4201 13.4459 20.7467C13.9502 20.9645 14.1636 21.0008 14.862 21.0008C15.5603 21.0008 15.7737 20.9645 16.278 20.7467C17.0249 20.4201 17.6844 19.8031 18.0336 19.0954L18.3051 18.551L18.3342 15.0759L18.3633 11.6098H27.8297C34.9779 11.6098 37.393 11.5826 37.6937 11.5009C38.2271 11.3558 39.0321 10.6027 39.1873 10.1036C39.2552 9.89493 39.3037 9.33238 39.3037 8.85149V7.98044H40.0796H40.8556L40.8362 9.9403L40.8071 11.8911L30.4872 16.3734C24.0955 19.1498 20.051 20.9554 19.8764 21.1097C19.7212 21.2549 19.4981 21.5271 19.3914 21.7267C19.1878 22.0715 19.1781 22.2348 19.149 24.5576L19.1199 27.0165L18.8289 27.1254C18.4312 27.2796 17.8299 27.942 17.6941 28.3775C17.5292 28.8947 17.5292 42.9676 17.6941 43.4938C17.8493 43.9929 18.6543 44.7459 19.1878 44.8911C19.7309 45.0363 23.1838 45.0363 23.7269 44.8911C24.2604 44.7459 25.0654 43.9929 25.2206 43.4938C25.3855 42.9676 25.3855 28.8947 25.2206 28.3775C25.0848 27.942 24.4835 27.2796 24.0761 27.1254L23.7851 27.0165V25.3923V23.7682L24.7841 23.3236C25.3273 23.0877 28.8772 21.518 32.6598 19.8485C36.4522 18.1699 40.4288 16.4096 41.5054 15.9378C43.6586 14.9851 44.1824 14.6857 44.6188 14.1776C45.4627 13.1704 45.5305 12.744 45.4917 9.25072L45.4627 6.39259L45.1523 5.78467C44.7255 4.94085 44.1824 4.41459 43.2998 4.00628L42.5626 3.67057L40.9332 3.63427L39.3037 3.60705V2.74508C39.3037 1.65627 39.1776 1.26611 38.6539 0.721703C37.8973 -0.0676842 39.585 -0.00416946 19.8667 0.00490189C7.42274 0.0139771 2.30161 0.0411987 2.05913 0.113785ZM7.92709 5.80282C3.41701 10.022 3.26182 10.1581 2.90295 10.1581C2.64108 10.1581 2.46649 10.0945 2.30161 9.93122L2.05913 9.71346V5.80282V1.89217L2.30161 1.67441L2.53439 1.44758H7.55853H12.5827L7.92709 5.80282ZM17.0152 3.10801C15.4536 4.57791 15.2499 4.80474 15.2499 5.06787C15.2499 5.45803 15.6185 5.80282 16.0452 5.80282C16.3265 5.80282 16.5981 5.57598 18.6931 3.6252L21.0306 1.44758H24.949H28.8772L24.2216 5.80282L19.566 10.1581H15.6379H11.7194L13.0967 8.86056C14.2994 7.72638 14.474 7.5177 14.474 7.26364C14.474 6.87348 14.1054 6.52869 13.6884 6.52869C13.4071 6.52869 13.1549 6.72831 11.4188 8.34338L9.46925 10.1581H7.49063H5.50232L10.1579 5.80282L14.8135 1.44758H16.8018H18.7804L17.0152 3.10801ZM33.3097 3.10801C31.7481 4.57791 31.5444 4.80474 31.5444 5.06787C31.5444 5.45803 31.913 5.80282 32.3398 5.80282C32.621 5.80282 32.8926 5.57598 34.9391 3.67057C36.1903 2.5001 37.2766 1.53831 37.3348 1.53831C37.4027 1.53831 37.5191 1.62905 37.5967 1.73793C37.7325 1.9194 37.7519 2.45473 37.7519 5.83004V9.71346L37.5094 9.93122L37.2766 10.1581H32.6404H28.014L29.3912 8.86056C30.5939 7.72638 30.7685 7.5177 30.7685 7.26364C30.7685 6.87348 30.3999 6.52869 29.9829 6.52869C29.7016 6.52869 29.4494 6.72831 27.7133 8.34338L25.7638 10.1581H23.7851H21.7968L26.4524 5.80282L31.108 1.44758H33.0963H35.0749L33.3097 3.10801ZM42.3492 5.18583C42.9118 5.34008 43.6877 6.0841 43.8526 6.61943C43.9399 6.91885 43.9593 7.77175 43.9399 9.74976C43.9108 12.3357 43.9011 12.4899 43.6974 12.8347C43.5907 13.0343 43.3676 13.3065 43.2125 13.4426C43.0476 13.5969 38.8285 15.5114 32.7471 18.188C27.1507 20.6651 22.4952 22.7701 22.4079 22.8699C22.2527 23.0423 22.2333 23.2873 22.2333 24.9568V26.8532H21.4574H20.6814V24.6483C20.6911 22.9425 20.7202 22.4163 20.8172 22.2892C20.9627 22.1168 21.3701 21.9354 29.7986 18.2788C32.7568 16.9903 35.812 15.6656 36.588 15.3299C37.3639 14.9942 38.9158 14.3228 40.0312 13.8419C41.1562 13.3519 42.1456 12.871 42.2425 12.7712C42.388 12.6079 42.4074 12.3266 42.4074 9.77698V6.97329L42.165 6.75553C41.9419 6.53777 41.8837 6.52869 40.6131 6.52869H39.3037V5.80282V5.07695H40.6228C41.3793 5.07695 42.1165 5.12231 42.3492 5.18583ZM23.5427 28.5317L23.7851 28.7495V35.9266V43.1037L23.5427 43.3214C23.3099 43.5483 23.2905 43.5483 21.4574 43.5483C19.6242 43.5483 19.6048 43.5483 19.372 43.3214L19.1296 43.1037V35.9266V28.7495L19.372 28.5317C19.6048 28.3049 19.6242 28.3049 21.4574 28.3049C23.2905 28.3049 23.3099 28.3049 23.5427 28.5317Z" fill="#385529"/>
<path d="M20.9239 40.1457C20.6911 40.3544 20.6814 40.427 20.6814 41.3706C20.6814 42.3142 20.6911 42.3868 20.9239 42.5955C21.2342 42.8949 21.6804 42.8949 21.9908 42.5955C22.2236 42.3868 22.2333 42.3142 22.2333 41.3706C22.2333 40.427 22.2236 40.3544 21.9908 40.1457C21.8453 40.0005 21.6416 39.9188 21.4573 39.9188C21.273 39.9188 21.0694 40.0005 20.9239 40.1457Z" fill="#385529"/>
</svg>
