<svg width="46" height="45" viewBox="0 0 46 45" fill="none" xmlns="http://www.w3.org/2000/svg">
<path d="M1.29102 0.202149C1.02734 0.342774 0.842773 0.527345 0.702148 0.791017C0.517578 1.14258 0.5 1.2832 0.5 2.52246C0.5 4.17481 0.579102 4.39453 1.17676 4.39453C1.48438 4.39453 1.7041 4.21875 1.77441 3.92871C1.80078 3.82324 1.82715 3.19922 1.84473 2.54883L1.8623 1.36231H5.77344H9.68457V5.31738V9.27246H5.77344H1.8623L1.81836 7.94531C1.7832 6.79395 1.74805 6.58301 1.60742 6.42481C1.36133 6.15234 0.913086 6.17871 0.68457 6.46875C0.517578 6.67969 0.5 6.82031 0.5 8.07715C0.5 9.33398 0.517578 9.49219 0.702148 9.84375C0.842773 10.1338 1.00098 10.292 1.29102 10.4326C1.67773 10.6348 1.7041 10.6348 5.78223 10.6348H9.87793L10.2559 10.4326C10.5195 10.292 10.7041 10.1074 10.8447 9.84375L11.0469 9.46582V5.31738V1.16895L10.8447 0.791017C10.7041 0.527345 10.5195 0.342774 10.2559 0.202149L9.87793 9.53674e-07H5.77344H1.66895L1.29102 0.202149Z" fill="#385529"/>
<path d="M12.8047 0.202149C12.541 0.342774 12.3564 0.527345 12.2158 0.791017L12.0137 1.16895V5.31738V9.46582L12.2158 9.84375C12.3564 10.1074 12.541 10.292 12.8047 10.4326L13.1826 10.6348H23H32.8174L33.1953 10.4326C33.459 10.292 33.6436 10.1074 33.7842 9.84375L33.9863 9.46582V5.31738V1.16895L33.7842 0.791017C33.6436 0.527345 33.459 0.342774 33.1953 0.202149L32.8174 9.53674e-07H23H13.1826L12.8047 0.202149ZM32.624 5.31738V9.27246H23H13.376L13.3496 5.40527C13.3408 3.27832 13.3496 1.48535 13.376 1.42383C13.4023 1.33594 15.3799 1.31836 23.0176 1.33594L32.624 1.36231V5.31738Z" fill="#385529"/>
<path d="M35.7441 0.202149C35.4805 0.342774 35.2959 0.527345 35.1553 0.791017L34.9531 1.16895V5.31738V9.46582L35.1553 9.84375C35.2959 10.1074 35.4805 10.292 35.7441 10.4326L36.1221 10.6348H40.2178C44.2959 10.6348 44.3223 10.6348 44.709 10.4326C44.999 10.292 45.1572 10.1338 45.3066 9.84375C45.5 9.45703 45.5 9.43066 45.5 5.30859V1.16895L45.2979 0.791017C45.1572 0.527345 44.9727 0.342774 44.709 0.202149L44.3311 9.53674e-07H40.2266H36.1221L35.7441 0.202149ZM44.1377 5.31738V9.27246H40.2266H36.3154L36.2891 5.40527C36.2803 3.27832 36.2891 1.48535 36.3154 1.42383C36.3418 1.33594 37.1768 1.31836 40.2441 1.33594L44.1377 1.36231V5.31738Z" fill="#385529"/>
<path d="M1.51958 11.5576C1.08013 11.7158 0.693412 12.085 0.579154 12.4805C0.526419 12.6738 0.500052 14.2734 0.51763 16.9717L0.543997 21.1553L0.79888 21.4805C1.2647 22.1045 0.579154 22.0693 11.6094 22.043C21.5147 22.0166 21.585 22.0166 21.8311 21.832C21.9629 21.7354 22.1651 21.4805 22.2706 21.2695C22.4727 20.8828 22.4727 20.8565 22.4727 16.7695C22.4727 13.4912 22.4463 12.5947 22.3497 12.3662C22.2002 11.9971 21.7696 11.6367 21.3477 11.5137C21.1368 11.4609 17.7706 11.4258 11.4424 11.4258C3.53228 11.4346 1.80083 11.4522 1.51958 11.5576ZM21.1368 16.7607L21.1543 20.7422H11.4864H1.81841V16.7959C1.81841 13.7197 1.84478 12.8408 1.93267 12.8057C1.9854 12.7793 6.3272 12.7617 11.5743 12.7705L21.1104 12.7881L21.1368 16.7607Z" fill="#385529"/>
<path d="M24.5557 11.5576C24.3623 11.6191 24.1162 11.7686 23.9932 11.8828C23.5273 12.3047 23.5273 12.3311 23.5273 16.7695C23.5273 20.8565 23.5273 20.8828 23.7295 21.2695C23.835 21.4805 24.0371 21.7354 24.1689 21.832C24.415 22.0166 24.4854 22.0166 34.3906 22.043C45.4209 22.0693 44.7354 22.1045 45.2012 21.4805L45.4561 21.1553L45.4824 16.9717C45.5 14.1856 45.4824 12.6826 45.4121 12.4629C45.2979 12.0762 44.832 11.6455 44.3838 11.5225C44.1553 11.4609 40.8945 11.4258 34.4697 11.4258C26.5859 11.4346 24.8281 11.4522 24.5557 11.5576ZM44.041 12.7969C44.1641 12.8408 44.1816 13.2803 44.1816 16.7959V20.7422H34.5137H24.8457V16.8047C24.8457 14.6338 24.8721 12.832 24.9072 12.8057C24.9775 12.7266 43.8477 12.7266 44.041 12.7969Z" fill="#385529"/>
<path d="M1.32616 23.0625C1.17675 23.1328 0.939446 23.335 0.798821 23.5195L0.543938 23.8447L0.517571 28.0283C0.499992 30.8145 0.517571 32.3174 0.587883 32.5371C0.702141 32.9238 1.16796 33.3545 1.6162 33.4775C2.06445 33.6006 9.47363 33.6094 9.92187 33.4863C10.3437 33.3633 10.7744 33.0029 10.9238 32.6338C11.0205 32.4053 11.0469 31.5088 11.0469 28.2305C11.0469 24.1436 11.0469 24.1172 10.8447 23.7305C10.7393 23.5195 10.5371 23.2647 10.4053 23.168C10.1592 22.9922 10.0449 22.9834 5.8789 22.9658C2.40722 22.9482 1.54589 22.9658 1.32616 23.0625ZM9.71093 28.2305L9.68456 32.2119H5.77343H1.8623L1.83593 28.2305L1.81835 24.2578H5.77343H9.72851L9.71093 28.2305Z" fill="#385529"/>
<path d="M12.8487 23.0625C12.5147 23.2119 12.3213 23.4229 12.1456 23.8447C11.961 24.293 11.9434 32.1855 12.1368 32.6338C12.2862 33.0029 12.7168 33.3633 13.1387 33.4863C13.587 33.6094 32.4131 33.6094 32.8614 33.4863C33.2833 33.3633 33.7139 33.0029 33.8633 32.6338C33.96 32.4053 33.9864 31.5088 33.9864 28.2305C33.9864 24.1436 33.9864 24.1172 33.793 23.7305C33.4239 23.0186 33.3272 22.9834 31.4024 22.957C29.794 22.9307 29.7061 22.9395 29.5479 23.1152C29.3282 23.3613 29.337 23.7832 29.5831 24.0205C29.7588 24.2051 29.8643 24.2139 31.2178 24.2402L32.668 24.2666V28.2129V32.168L32.4747 32.2119C32.3604 32.2383 28.0186 32.2471 22.8243 32.2383L13.376 32.2119L13.3497 28.2393L13.3321 24.2578L20.2842 24.2402L27.2364 24.2139L27.4034 24.0029C27.6231 23.7393 27.6143 23.335 27.3946 23.1152C27.2188 22.9395 27.1045 22.9395 20.17 22.9395C14.5098 22.9482 13.0596 22.9658 12.8487 23.0625Z" fill="#385529"/>
<path d="M35.7881 23.0625C35.4542 23.2119 35.2608 23.4229 35.085 23.8447C34.9004 24.293 34.8829 32.1856 35.0762 32.6338C35.2256 33.0029 35.6563 33.3633 36.0782 33.4863C36.5264 33.6094 43.9356 33.6006 44.3838 33.4775C44.8321 33.3545 45.2979 32.9238 45.4122 32.5371C45.4825 32.3174 45.5 30.8145 45.4825 28.0283L45.4561 23.8447L45.2012 23.5195C44.753 22.9307 44.8233 22.9395 40.209 22.9395C36.9571 22.9482 35.9903 22.9746 35.7881 23.0625ZM44.1641 28.2305L44.1377 32.2119H40.2266H36.3155L36.2891 28.2305L36.2715 24.2578H40.2266H44.1817L44.1641 28.2305Z" fill="#385529"/>
<path d="M1.29102 34.5586C1.00098 34.708 0.842773 34.8662 0.702148 35.1563C0.5 35.543 0.5 35.5693 0.5 39.6914V43.8311L0.702148 44.209C0.842773 44.4727 1.02734 44.6572 1.29102 44.7979C1.64258 44.9824 1.77441 45 3.06641 45C4.42871 45 4.46387 44.9912 4.6748 44.7803C4.93848 44.5254 4.95605 44.2178 4.72754 43.9365C4.56934 43.7344 4.49902 43.7256 3.20703 43.6816L1.8623 43.6377V39.6826V35.7275H11.4863H21.1104V39.6826V43.6377L14.0527 43.6816L6.98633 43.7256L6.81934 43.9365C6.59082 44.2178 6.6084 44.5254 6.87207 44.7803L7.08301 45H14.1934H21.3037L21.6816 44.7979C21.9453 44.6572 22.1299 44.4727 22.2705 44.209L22.4727 43.8311V39.6826V35.5342L22.2705 35.1563C22.1299 34.8926 21.9453 34.708 21.6816 34.5674L21.3037 34.3652H11.4951H1.67773L1.29102 34.5586Z" fill="#385529"/>
<path d="M24.3184 34.5674C24.0547 34.708 23.8701 34.8926 23.7295 35.1563L23.5273 35.5342V39.6826V43.8311L23.7295 44.209C23.8701 44.4727 24.0547 44.6572 24.3184 44.7979L24.6963 45H34.5137H44.3311L44.709 44.7979C44.9727 44.6572 45.1572 44.4727 45.2979 44.209L45.5 43.8311V39.6914C45.5 35.5693 45.5 35.543 45.3066 35.1563C45.1572 34.8662 44.999 34.708 44.709 34.5586L44.3223 34.3652H34.5049H24.6963L24.3184 34.5674ZM44.1377 39.6826V43.6377H34.5137H24.8896L24.8633 39.7705C24.8545 37.6436 24.8633 35.8506 24.8896 35.7891C24.916 35.7012 26.8936 35.6836 34.5312 35.7012L44.1377 35.7275V39.6826Z" fill="#385529"/>
</svg>
